<mxfile host="app.diagrams.net" agent="Mozilla/5.0 (Windows NT 10.0; Win64; x64) AppleWebKit/537.36 (KHTML, like Gecko) Chrome/137.0.0.0 Safari/537.36" version="27.2.0">
  <diagram name="Page-1" id="8LKJEuyPxNBGUrqoEQUZ">
    <mxGraphModel dx="1678" dy="874" grid="1" gridSize="10" guides="1" tooltips="1" connect="1" arrows="1" fold="1" page="1" pageScale="1" pageWidth="827" pageHeight="1169" math="0" shadow="0">
      <root>
        <mxCell id="0" />
        <mxCell id="1" parent="0" />
        <mxCell id="sck4vuj4WWujbihpHHY0-19" value="" style="group" vertex="1" connectable="0" parent="1">
          <mxGeometry x="76" y="1240" width="680" height="380" as="geometry" />
        </mxCell>
        <mxCell id="sck4vuj4WWujbihpHHY0-2" value="" style="rounded=1;whiteSpace=wrap;html=1;arcSize=1;" vertex="1" parent="sck4vuj4WWujbihpHHY0-19">
          <mxGeometry width="680" height="380" as="geometry" />
        </mxCell>
        <mxCell id="sck4vuj4WWujbihpHHY0-3" value="" style="group;rounded=1;arcSize=44;" vertex="1" connectable="0" parent="sck4vuj4WWujbihpHHY0-19">
          <mxGeometry width="680" height="14" as="geometry" />
        </mxCell>
        <mxCell id="sck4vuj4WWujbihpHHY0-4" value="" style="endArrow=none;html=1;rounded=0;entryX=0;entryY=1;entryDx=0;entryDy=0;exitX=0;exitY=1;exitDx=0;exitDy=0;" edge="1" parent="sck4vuj4WWujbihpHHY0-3" target="sck4vuj4WWujbihpHHY0-7">
          <mxGeometry width="50" height="50" relative="1" as="geometry">
            <mxPoint y="14" as="sourcePoint" />
            <mxPoint x="456" y="160" as="targetPoint" />
          </mxGeometry>
        </mxCell>
        <mxCell id="sck4vuj4WWujbihpHHY0-5" value="" style="whiteSpace=wrap;html=1;aspect=fixed;" vertex="1" parent="sck4vuj4WWujbihpHHY0-3">
          <mxGeometry x="666" width="14" height="14" as="geometry" />
        </mxCell>
        <mxCell id="sck4vuj4WWujbihpHHY0-6" value="" style="whiteSpace=wrap;html=1;aspect=fixed;" vertex="1" parent="sck4vuj4WWujbihpHHY0-3">
          <mxGeometry x="652" width="14" height="14" as="geometry" />
        </mxCell>
        <mxCell id="sck4vuj4WWujbihpHHY0-7" value="" style="whiteSpace=wrap;html=1;aspect=fixed;" vertex="1" parent="sck4vuj4WWujbihpHHY0-3">
          <mxGeometry x="638" width="14" height="14" as="geometry" />
        </mxCell>
        <mxCell id="sck4vuj4WWujbihpHHY0-16" value="" style="triangle;whiteSpace=wrap;html=1;rotation=-180;" vertex="1" parent="sck4vuj4WWujbihpHHY0-19">
          <mxGeometry x="14" y="30" width="17" height="20" as="geometry" />
        </mxCell>
        <mxCell id="sck4vuj4WWujbihpHHY0-9" value="Nom" style="strokeWidth=1;shadow=0;dashed=0;align=center;html=1;shape=mxgraph.mockup.text.textBox;fontColor=#666666;align=left;fontSize=17;spacingLeft=4;spacingTop=-3;whiteSpace=wrap;strokeColor=#666666;mainText=" vertex="1" parent="sck4vuj4WWujbihpHHY0-19">
          <mxGeometry x="251" y="100" width="178" height="20" as="geometry" />
        </mxCell>
        <mxCell id="R-T66y3Ku4dc0HnjRfM0-2" value="" style="rounded=1;whiteSpace=wrap;html=1;arcSize=2;" parent="1" vertex="1">
          <mxGeometry x="76" y="440" width="680" height="380" as="geometry" />
        </mxCell>
        <mxCell id="R-T66y3Ku4dc0HnjRfM0-3" value="" style="strokeWidth=1;shadow=0;dashed=0;align=center;html=1;shape=mxgraph.mockup.text.textBox;fontColor=#666666;align=left;fontSize=17;spacingLeft=4;spacingTop=-3;whiteSpace=wrap;strokeColor=#666666;mainText=" parent="1" vertex="1">
          <mxGeometry x="112" y="510" width="100" height="20" as="geometry" />
        </mxCell>
        <mxCell id="R-T66y3Ku4dc0HnjRfM0-4" value="" style="strokeWidth=1;shadow=0;dashed=0;align=center;html=1;shape=mxgraph.mockup.text.textBox;fontColor=#666666;align=left;fontSize=17;spacingLeft=4;spacingTop=-3;whiteSpace=wrap;strokeColor=#666666;mainText=" parent="1" vertex="1">
          <mxGeometry x="212" y="510" width="100" height="20" as="geometry" />
        </mxCell>
        <mxCell id="R-T66y3Ku4dc0HnjRfM0-6" value="" style="strokeWidth=1;shadow=0;dashed=0;align=center;html=1;shape=mxgraph.mockup.text.textBox;fontColor=#666666;align=left;fontSize=17;spacingLeft=4;spacingTop=-3;whiteSpace=wrap;strokeColor=#666666;mainText=" parent="1" vertex="1">
          <mxGeometry x="312" y="510" width="100" height="20" as="geometry" />
        </mxCell>
        <mxCell id="R-T66y3Ku4dc0HnjRfM0-7" value="" style="strokeWidth=1;shadow=0;dashed=0;align=center;html=1;shape=mxgraph.mockup.text.textBox;fontColor=#666666;align=left;fontSize=17;spacingLeft=4;spacingTop=-3;whiteSpace=wrap;strokeColor=#666666;mainText=" parent="1" vertex="1">
          <mxGeometry x="412" y="510" width="100" height="20" as="geometry" />
        </mxCell>
        <mxCell id="R-T66y3Ku4dc0HnjRfM0-13" value="" style="strokeWidth=1;shadow=0;dashed=0;align=center;html=1;shape=mxgraph.mockup.text.textBox;fontColor=#666666;align=left;fontSize=17;spacingLeft=4;spacingTop=-3;whiteSpace=wrap;strokeColor=#666666;mainText=" parent="1" vertex="1">
          <mxGeometry x="112" y="540" width="100" height="20" as="geometry" />
        </mxCell>
        <mxCell id="R-T66y3Ku4dc0HnjRfM0-14" value="" style="strokeWidth=1;shadow=0;dashed=0;align=center;html=1;shape=mxgraph.mockup.text.textBox;fontColor=#666666;align=left;fontSize=17;spacingLeft=4;spacingTop=-3;whiteSpace=wrap;strokeColor=#666666;mainText=" parent="1" vertex="1">
          <mxGeometry x="212" y="540" width="100" height="20" as="geometry" />
        </mxCell>
        <mxCell id="R-T66y3Ku4dc0HnjRfM0-15" value="" style="strokeWidth=1;shadow=0;dashed=0;align=center;html=1;shape=mxgraph.mockup.text.textBox;fontColor=#666666;align=left;fontSize=17;spacingLeft=4;spacingTop=-3;whiteSpace=wrap;strokeColor=#666666;mainText=" parent="1" vertex="1">
          <mxGeometry x="312" y="540" width="100" height="20" as="geometry" />
        </mxCell>
        <mxCell id="R-T66y3Ku4dc0HnjRfM0-16" value="" style="strokeWidth=1;shadow=0;dashed=0;align=center;html=1;shape=mxgraph.mockup.text.textBox;fontColor=#666666;align=left;fontSize=17;spacingLeft=4;spacingTop=-3;whiteSpace=wrap;strokeColor=#666666;mainText=" parent="1" vertex="1">
          <mxGeometry x="412" y="540" width="100" height="20" as="geometry" />
        </mxCell>
        <mxCell id="R-T66y3Ku4dc0HnjRfM0-17" value="" style="strokeWidth=1;shadow=0;dashed=0;align=center;html=1;shape=mxgraph.mockup.text.textBox;fontColor=#666666;align=left;fontSize=17;spacingLeft=4;spacingTop=-3;whiteSpace=wrap;strokeColor=#666666;mainText=" parent="1" vertex="1">
          <mxGeometry x="112" y="570" width="100" height="20" as="geometry" />
        </mxCell>
        <mxCell id="R-T66y3Ku4dc0HnjRfM0-18" value="" style="strokeWidth=1;shadow=0;dashed=0;align=center;html=1;shape=mxgraph.mockup.text.textBox;fontColor=#666666;align=left;fontSize=17;spacingLeft=4;spacingTop=-3;whiteSpace=wrap;strokeColor=#666666;mainText=" parent="1" vertex="1">
          <mxGeometry x="212" y="570" width="100" height="20" as="geometry" />
        </mxCell>
        <mxCell id="R-T66y3Ku4dc0HnjRfM0-19" value="" style="strokeWidth=1;shadow=0;dashed=0;align=center;html=1;shape=mxgraph.mockup.text.textBox;fontColor=#666666;align=left;fontSize=17;spacingLeft=4;spacingTop=-3;whiteSpace=wrap;strokeColor=#666666;mainText=" parent="1" vertex="1">
          <mxGeometry x="312" y="570" width="100" height="20" as="geometry" />
        </mxCell>
        <mxCell id="R-T66y3Ku4dc0HnjRfM0-20" value="" style="strokeWidth=1;shadow=0;dashed=0;align=center;html=1;shape=mxgraph.mockup.text.textBox;fontColor=#666666;align=left;fontSize=17;spacingLeft=4;spacingTop=-3;whiteSpace=wrap;strokeColor=#666666;mainText=" parent="1" vertex="1">
          <mxGeometry x="412" y="570" width="100" height="20" as="geometry" />
        </mxCell>
        <mxCell id="R-T66y3Ku4dc0HnjRfM0-21" value="" style="strokeWidth=1;shadow=0;dashed=0;align=center;html=1;shape=mxgraph.mockup.text.textBox;fontColor=#666666;align=left;fontSize=17;spacingLeft=4;spacingTop=-3;whiteSpace=wrap;strokeColor=#666666;mainText=" parent="1" vertex="1">
          <mxGeometry x="112" y="600" width="100" height="20" as="geometry" />
        </mxCell>
        <mxCell id="R-T66y3Ku4dc0HnjRfM0-22" value="" style="strokeWidth=1;shadow=0;dashed=0;align=center;html=1;shape=mxgraph.mockup.text.textBox;fontColor=#666666;align=left;fontSize=17;spacingLeft=4;spacingTop=-3;whiteSpace=wrap;strokeColor=#666666;mainText=" parent="1" vertex="1">
          <mxGeometry x="212" y="600" width="100" height="20" as="geometry" />
        </mxCell>
        <mxCell id="R-T66y3Ku4dc0HnjRfM0-23" value="" style="strokeWidth=1;shadow=0;dashed=0;align=center;html=1;shape=mxgraph.mockup.text.textBox;fontColor=#666666;align=left;fontSize=17;spacingLeft=4;spacingTop=-3;whiteSpace=wrap;strokeColor=#666666;mainText=" parent="1" vertex="1">
          <mxGeometry x="312" y="600" width="100" height="20" as="geometry" />
        </mxCell>
        <mxCell id="R-T66y3Ku4dc0HnjRfM0-24" value="" style="strokeWidth=1;shadow=0;dashed=0;align=center;html=1;shape=mxgraph.mockup.text.textBox;fontColor=#666666;align=left;fontSize=17;spacingLeft=4;spacingTop=-3;whiteSpace=wrap;strokeColor=#666666;mainText=" parent="1" vertex="1">
          <mxGeometry x="412" y="600" width="100" height="20" as="geometry" />
        </mxCell>
        <mxCell id="R-T66y3Ku4dc0HnjRfM0-25" value="" style="strokeWidth=1;shadow=0;dashed=0;align=center;html=1;shape=mxgraph.mockup.text.textBox;fontColor=#666666;align=left;fontSize=17;spacingLeft=4;spacingTop=-3;whiteSpace=wrap;strokeColor=#666666;mainText=" parent="1" vertex="1">
          <mxGeometry x="112" y="630" width="100" height="20" as="geometry" />
        </mxCell>
        <mxCell id="R-T66y3Ku4dc0HnjRfM0-26" value="" style="strokeWidth=1;shadow=0;dashed=0;align=center;html=1;shape=mxgraph.mockup.text.textBox;fontColor=#666666;align=left;fontSize=17;spacingLeft=4;spacingTop=-3;whiteSpace=wrap;strokeColor=#666666;mainText=" parent="1" vertex="1">
          <mxGeometry x="212" y="630" width="100" height="20" as="geometry" />
        </mxCell>
        <mxCell id="R-T66y3Ku4dc0HnjRfM0-27" value="" style="strokeWidth=1;shadow=0;dashed=0;align=center;html=1;shape=mxgraph.mockup.text.textBox;fontColor=#666666;align=left;fontSize=17;spacingLeft=4;spacingTop=-3;whiteSpace=wrap;strokeColor=#666666;mainText=" parent="1" vertex="1">
          <mxGeometry x="312" y="630" width="100" height="20" as="geometry" />
        </mxCell>
        <mxCell id="R-T66y3Ku4dc0HnjRfM0-28" value="" style="strokeWidth=1;shadow=0;dashed=0;align=center;html=1;shape=mxgraph.mockup.text.textBox;fontColor=#666666;align=left;fontSize=17;spacingLeft=4;spacingTop=-3;whiteSpace=wrap;strokeColor=#666666;mainText=" parent="1" vertex="1">
          <mxGeometry x="412" y="630" width="100" height="20" as="geometry" />
        </mxCell>
        <mxCell id="R-T66y3Ku4dc0HnjRfM0-29" value="" style="strokeWidth=1;shadow=0;dashed=0;align=center;html=1;shape=mxgraph.mockup.text.textBox;fontColor=#666666;align=left;fontSize=17;spacingLeft=4;spacingTop=-3;whiteSpace=wrap;strokeColor=#666666;mainText=" parent="1" vertex="1">
          <mxGeometry x="112" y="660" width="100" height="20" as="geometry" />
        </mxCell>
        <mxCell id="R-T66y3Ku4dc0HnjRfM0-30" value="" style="strokeWidth=1;shadow=0;dashed=0;align=center;html=1;shape=mxgraph.mockup.text.textBox;fontColor=#666666;align=left;fontSize=17;spacingLeft=4;spacingTop=-3;whiteSpace=wrap;strokeColor=#666666;mainText=" parent="1" vertex="1">
          <mxGeometry x="212" y="660" width="100" height="20" as="geometry" />
        </mxCell>
        <mxCell id="R-T66y3Ku4dc0HnjRfM0-31" value="" style="strokeWidth=1;shadow=0;dashed=0;align=center;html=1;shape=mxgraph.mockup.text.textBox;fontColor=#666666;align=left;fontSize=17;spacingLeft=4;spacingTop=-3;whiteSpace=wrap;strokeColor=#666666;mainText=" parent="1" vertex="1">
          <mxGeometry x="312" y="660" width="100" height="20" as="geometry" />
        </mxCell>
        <mxCell id="R-T66y3Ku4dc0HnjRfM0-32" value="" style="strokeWidth=1;shadow=0;dashed=0;align=center;html=1;shape=mxgraph.mockup.text.textBox;fontColor=#666666;align=left;fontSize=17;spacingLeft=4;spacingTop=-3;whiteSpace=wrap;strokeColor=#666666;mainText=" parent="1" vertex="1">
          <mxGeometry x="412" y="660" width="100" height="20" as="geometry" />
        </mxCell>
        <mxCell id="R-T66y3Ku4dc0HnjRfM0-33" value="" style="strokeWidth=1;shadow=0;dashed=0;align=center;html=1;shape=mxgraph.mockup.text.textBox;fontColor=#666666;align=left;fontSize=17;spacingLeft=4;spacingTop=-3;whiteSpace=wrap;strokeColor=#666666;mainText=" parent="1" vertex="1">
          <mxGeometry x="112" y="690" width="100" height="20" as="geometry" />
        </mxCell>
        <mxCell id="R-T66y3Ku4dc0HnjRfM0-34" value="" style="strokeWidth=1;shadow=0;dashed=0;align=center;html=1;shape=mxgraph.mockup.text.textBox;fontColor=#666666;align=left;fontSize=17;spacingLeft=4;spacingTop=-3;whiteSpace=wrap;strokeColor=#666666;mainText=" parent="1" vertex="1">
          <mxGeometry x="212" y="690" width="100" height="20" as="geometry" />
        </mxCell>
        <mxCell id="R-T66y3Ku4dc0HnjRfM0-35" value="" style="strokeWidth=1;shadow=0;dashed=0;align=center;html=1;shape=mxgraph.mockup.text.textBox;fontColor=#666666;align=left;fontSize=17;spacingLeft=4;spacingTop=-3;whiteSpace=wrap;strokeColor=#666666;mainText=" parent="1" vertex="1">
          <mxGeometry x="312" y="690" width="100" height="20" as="geometry" />
        </mxCell>
        <mxCell id="R-T66y3Ku4dc0HnjRfM0-36" value="" style="strokeWidth=1;shadow=0;dashed=0;align=center;html=1;shape=mxgraph.mockup.text.textBox;fontColor=#666666;align=left;fontSize=17;spacingLeft=4;spacingTop=-3;whiteSpace=wrap;strokeColor=#666666;mainText=" parent="1" vertex="1">
          <mxGeometry x="412" y="690" width="100" height="20" as="geometry" />
        </mxCell>
        <mxCell id="R-T66y3Ku4dc0HnjRfM0-37" value="" style="strokeWidth=1;shadow=0;dashed=0;align=center;html=1;shape=mxgraph.mockup.text.textBox;fontColor=#666666;align=left;fontSize=17;spacingLeft=4;spacingTop=-3;whiteSpace=wrap;strokeColor=#666666;mainText=" parent="1" vertex="1">
          <mxGeometry x="112" y="720" width="100" height="20" as="geometry" />
        </mxCell>
        <mxCell id="R-T66y3Ku4dc0HnjRfM0-38" value="" style="strokeWidth=1;shadow=0;dashed=0;align=center;html=1;shape=mxgraph.mockup.text.textBox;fontColor=#666666;align=left;fontSize=17;spacingLeft=4;spacingTop=-3;whiteSpace=wrap;strokeColor=#666666;mainText=" parent="1" vertex="1">
          <mxGeometry x="212" y="720" width="100" height="20" as="geometry" />
        </mxCell>
        <mxCell id="R-T66y3Ku4dc0HnjRfM0-39" value="" style="strokeWidth=1;shadow=0;dashed=0;align=center;html=1;shape=mxgraph.mockup.text.textBox;fontColor=#666666;align=left;fontSize=17;spacingLeft=4;spacingTop=-3;whiteSpace=wrap;strokeColor=#666666;mainText=" parent="1" vertex="1">
          <mxGeometry x="312" y="720" width="100" height="20" as="geometry" />
        </mxCell>
        <mxCell id="R-T66y3Ku4dc0HnjRfM0-40" value="" style="strokeWidth=1;shadow=0;dashed=0;align=center;html=1;shape=mxgraph.mockup.text.textBox;fontColor=#666666;align=left;fontSize=17;spacingLeft=4;spacingTop=-3;whiteSpace=wrap;strokeColor=#666666;mainText=" parent="1" vertex="1">
          <mxGeometry x="412" y="720" width="100" height="20" as="geometry" />
        </mxCell>
        <mxCell id="R-T66y3Ku4dc0HnjRfM0-41" value="" style="strokeWidth=1;shadow=0;dashed=0;align=center;html=1;shape=mxgraph.mockup.text.textBox;fontColor=#666666;align=left;fontSize=17;spacingLeft=4;spacingTop=-3;whiteSpace=wrap;strokeColor=#666666;mainText=" parent="1" vertex="1">
          <mxGeometry x="112" y="750" width="100" height="20" as="geometry" />
        </mxCell>
        <mxCell id="R-T66y3Ku4dc0HnjRfM0-42" value="" style="strokeWidth=1;shadow=0;dashed=0;align=center;html=1;shape=mxgraph.mockup.text.textBox;fontColor=#666666;align=left;fontSize=17;spacingLeft=4;spacingTop=-3;whiteSpace=wrap;strokeColor=#666666;mainText=" parent="1" vertex="1">
          <mxGeometry x="212" y="750" width="100" height="20" as="geometry" />
        </mxCell>
        <mxCell id="R-T66y3Ku4dc0HnjRfM0-43" value="" style="strokeWidth=1;shadow=0;dashed=0;align=center;html=1;shape=mxgraph.mockup.text.textBox;fontColor=#666666;align=left;fontSize=17;spacingLeft=4;spacingTop=-3;whiteSpace=wrap;strokeColor=#666666;mainText=" parent="1" vertex="1">
          <mxGeometry x="312" y="750" width="100" height="20" as="geometry" />
        </mxCell>
        <mxCell id="R-T66y3Ku4dc0HnjRfM0-44" value="" style="verticalLabelPosition=bottom;shadow=0;dashed=0;align=center;html=1;verticalAlign=top;strokeWidth=1;shape=mxgraph.mockup.navigation.scrollBar;strokeColor=#999999;barPos=100;fillColor2=#99ddff;strokeColor2=none;direction=north;" parent="1" vertex="1">
          <mxGeometry x="532" y="490" width="20" height="300" as="geometry" />
        </mxCell>
        <mxCell id="R-T66y3Ku4dc0HnjRfM0-45" value="" style="verticalLabelPosition=bottom;shadow=0;dashed=0;align=center;html=1;verticalAlign=top;strokeWidth=1;shape=mxgraph.mockup.navigation.scrollBar;strokeColor=#999999;barPos=0;fillColor2=#99ddff;strokeColor2=none;direction=north;rotation=90;" parent="1" vertex="1">
          <mxGeometry x="297" y="590" width="20" height="410" as="geometry" />
        </mxCell>
        <mxCell id="R-T66y3Ku4dc0HnjRfM0-46" value="" style="verticalLabelPosition=bottom;shadow=0;dashed=0;align=center;html=1;verticalAlign=top;strokeWidth=1;shape=mxgraph.mockup.forms.splitter;strokeColor=#999999;direction=north;" parent="1" vertex="1">
          <mxGeometry x="562" y="460" width="10" height="360" as="geometry" />
        </mxCell>
        <mxCell id="R-T66y3Ku4dc0HnjRfM0-47" value="Search" style="strokeWidth=1;shadow=0;dashed=0;align=center;html=1;shape=mxgraph.mockup.forms.searchBox;strokeColor=#999999;mainText=;strokeColor2=#008cff;fontColor=#666666;fontSize=17;align=left;spacingLeft=3;whiteSpace=wrap;" parent="1" vertex="1">
          <mxGeometry x="232" y="470" width="258" height="25" as="geometry" />
        </mxCell>
        <mxCell id="R-T66y3Ku4dc0HnjRfM0-48" value="" style="strokeWidth=1;shadow=0;dashed=0;align=center;html=1;shape=mxgraph.mockup.text.textBox;fontColor=#666666;align=left;fontSize=8;spacingLeft=4;spacingTop=-3;whiteSpace=wrap;strokeColor=#666666;mainText=;" parent="1" vertex="1">
          <mxGeometry x="592" y="470" width="150" height="20" as="geometry" />
        </mxCell>
        <mxCell id="R-T66y3Ku4dc0HnjRfM0-49" value="" style="strokeWidth=1;shadow=0;dashed=0;align=center;html=1;shape=mxgraph.mockup.text.textBox;fontColor=#666666;align=left;fontSize=8;spacingLeft=4;spacingTop=-3;whiteSpace=wrap;strokeColor=#666666;mainText=" parent="1" vertex="1">
          <mxGeometry x="592" y="510" width="150" height="20" as="geometry" />
        </mxCell>
        <mxCell id="R-T66y3Ku4dc0HnjRfM0-50" value="" style="strokeWidth=1;shadow=0;dashed=0;align=center;html=1;shape=mxgraph.mockup.text.textBox;fontColor=#666666;align=left;fontSize=8;spacingLeft=4;spacingTop=-3;whiteSpace=wrap;strokeColor=#666666;mainText=" parent="1" vertex="1">
          <mxGeometry x="592" y="550" width="150" height="20" as="geometry" />
        </mxCell>
        <mxCell id="R-T66y3Ku4dc0HnjRfM0-51" value="" style="strokeWidth=1;shadow=0;dashed=0;align=center;html=1;shape=mxgraph.mockup.text.textBox;fontColor=#666666;align=left;fontSize=8;spacingLeft=4;spacingTop=-3;whiteSpace=wrap;strokeColor=#666666;mainText=" parent="1" vertex="1">
          <mxGeometry x="592" y="590" width="150" height="20" as="geometry" />
        </mxCell>
        <mxCell id="R-T66y3Ku4dc0HnjRfM0-52" value="" style="strokeWidth=1;shadow=0;dashed=0;align=center;html=1;shape=mxgraph.mockup.text.textBox;fontColor=#666666;align=left;fontSize=8;spacingLeft=4;spacingTop=-3;whiteSpace=wrap;strokeColor=#666666;mainText=" parent="1" vertex="1">
          <mxGeometry x="592" y="630" width="150" height="20" as="geometry" />
        </mxCell>
        <mxCell id="R-T66y3Ku4dc0HnjRfM0-53" value="" style="strokeWidth=1;shadow=0;dashed=0;align=center;html=1;shape=mxgraph.mockup.text.textBox;fontColor=#666666;align=left;fontSize=8;spacingLeft=4;spacingTop=-3;whiteSpace=wrap;strokeColor=#666666;mainText=" parent="1" vertex="1">
          <mxGeometry x="592" y="670" width="150" height="20" as="geometry" />
        </mxCell>
        <mxCell id="R-T66y3Ku4dc0HnjRfM0-54" value="" style="strokeWidth=1;shadow=0;dashed=0;align=center;html=1;shape=mxgraph.mockup.text.textBox;fontColor=#666666;align=left;fontSize=8;spacingLeft=4;spacingTop=-3;whiteSpace=wrap;strokeColor=#666666;mainText=" parent="1" vertex="1">
          <mxGeometry x="592" y="710" width="150" height="80" as="geometry" />
        </mxCell>
        <mxCell id="R-T66y3Ku4dc0HnjRfM0-55" value="" style="rounded=1;whiteSpace=wrap;html=1;arcSize=1;" parent="1" vertex="1">
          <mxGeometry x="76" y="40" width="680" height="380" as="geometry" />
        </mxCell>
        <mxCell id="R-T66y3Ku4dc0HnjRfM0-56" value="Equipement en place" style="strokeWidth=1;shadow=0;dashed=0;align=center;html=1;shape=mxgraph.mockup.buttons.button;strokeColor=#666666;fontColor=#ffffff;mainText=;buttonStyle=round;fontSize=17;fontStyle=1;fillColor=#008cff;whiteSpace=wrap;" parent="1" vertex="1">
          <mxGeometry x="132" y="160" width="150" height="140" as="geometry" />
        </mxCell>
        <mxCell id="R-T66y3Ku4dc0HnjRfM0-57" value="Equipement disponible" style="strokeWidth=1;shadow=0;dashed=0;align=center;html=1;shape=mxgraph.mockup.buttons.button;strokeColor=#666666;fontColor=#ffffff;mainText=;buttonStyle=round;fontSize=17;fontStyle=1;fillColor=#008cff;whiteSpace=wrap;" parent="1" vertex="1">
          <mxGeometry x="341" y="160" width="150" height="140" as="geometry" />
        </mxCell>
        <mxCell id="R-T66y3Ku4dc0HnjRfM0-58" value="Modification&lt;div&gt;Création&lt;/div&gt;" style="strokeWidth=1;shadow=0;dashed=0;align=center;html=1;shape=mxgraph.mockup.buttons.button;strokeColor=#666666;fontColor=#ffffff;mainText=;buttonStyle=round;fontSize=17;fontStyle=1;fillColor=#008cff;whiteSpace=wrap;" parent="1" vertex="1">
          <mxGeometry x="552" y="160" width="150" height="140" as="geometry" />
        </mxCell>
        <mxCell id="R-T66y3Ku4dc0HnjRfM0-59" value="" style="endArrow=none;html=1;rounded=0;entryX=0;entryY=1;entryDx=0;entryDy=0;exitX=0;exitY=1;exitDx=0;exitDy=0;" parent="1" target="R-T66y3Ku4dc0HnjRfM0-63" edge="1">
          <mxGeometry width="50" height="50" relative="1" as="geometry">
            <mxPoint x="76" y="454" as="sourcePoint" />
            <mxPoint x="532" y="600" as="targetPoint" />
          </mxGeometry>
        </mxCell>
        <mxCell id="R-T66y3Ku4dc0HnjRfM0-61" value="" style="whiteSpace=wrap;html=1;aspect=fixed;" parent="1" vertex="1">
          <mxGeometry x="742" y="440" width="14" height="14" as="geometry" />
        </mxCell>
        <mxCell id="R-T66y3Ku4dc0HnjRfM0-62" value="" style="whiteSpace=wrap;html=1;aspect=fixed;" parent="1" vertex="1">
          <mxGeometry x="728" y="440" width="14" height="14" as="geometry" />
        </mxCell>
        <mxCell id="R-T66y3Ku4dc0HnjRfM0-63" value="" style="whiteSpace=wrap;html=1;aspect=fixed;" parent="1" vertex="1">
          <mxGeometry x="714" y="440" width="14" height="14" as="geometry" />
        </mxCell>
        <mxCell id="R-T66y3Ku4dc0HnjRfM0-69" value="" style="group;rounded=1;arcSize=44;" parent="1" vertex="1" connectable="0">
          <mxGeometry x="76" y="40" width="680" height="14" as="geometry" />
        </mxCell>
        <mxCell id="R-T66y3Ku4dc0HnjRfM0-65" value="" style="endArrow=none;html=1;rounded=0;entryX=0;entryY=1;entryDx=0;entryDy=0;exitX=0;exitY=1;exitDx=0;exitDy=0;" parent="R-T66y3Ku4dc0HnjRfM0-69" target="R-T66y3Ku4dc0HnjRfM0-68" edge="1">
          <mxGeometry width="50" height="50" relative="1" as="geometry">
            <mxPoint y="14" as="sourcePoint" />
            <mxPoint x="456" y="160" as="targetPoint" />
          </mxGeometry>
        </mxCell>
        <mxCell id="R-T66y3Ku4dc0HnjRfM0-66" value="" style="whiteSpace=wrap;html=1;aspect=fixed;" parent="R-T66y3Ku4dc0HnjRfM0-69" vertex="1">
          <mxGeometry x="666" width="14" height="14" as="geometry" />
        </mxCell>
        <mxCell id="R-T66y3Ku4dc0HnjRfM0-67" value="" style="whiteSpace=wrap;html=1;aspect=fixed;" parent="R-T66y3Ku4dc0HnjRfM0-69" vertex="1">
          <mxGeometry x="652" width="14" height="14" as="geometry" />
        </mxCell>
        <mxCell id="R-T66y3Ku4dc0HnjRfM0-68" value="" style="whiteSpace=wrap;html=1;aspect=fixed;" parent="R-T66y3Ku4dc0HnjRfM0-69" vertex="1">
          <mxGeometry x="638" width="14" height="14" as="geometry" />
        </mxCell>
        <mxCell id="R-T66y3Ku4dc0HnjRfM0-70" value="" style="rounded=1;whiteSpace=wrap;html=1;arcSize=1;" parent="1" vertex="1">
          <mxGeometry x="76" y="840" width="680" height="380" as="geometry" />
        </mxCell>
        <mxCell id="R-T66y3Ku4dc0HnjRfM0-71" value="" style="group;rounded=1;arcSize=44;" parent="1" vertex="1" connectable="0">
          <mxGeometry x="76" y="840" width="680" height="14" as="geometry" />
        </mxCell>
        <mxCell id="R-T66y3Ku4dc0HnjRfM0-72" value="" style="endArrow=none;html=1;rounded=0;entryX=0;entryY=1;entryDx=0;entryDy=0;exitX=0;exitY=1;exitDx=0;exitDy=0;" parent="R-T66y3Ku4dc0HnjRfM0-71" target="R-T66y3Ku4dc0HnjRfM0-75" edge="1">
          <mxGeometry width="50" height="50" relative="1" as="geometry">
            <mxPoint y="14" as="sourcePoint" />
            <mxPoint x="456" y="160" as="targetPoint" />
          </mxGeometry>
        </mxCell>
        <mxCell id="R-T66y3Ku4dc0HnjRfM0-73" value="" style="whiteSpace=wrap;html=1;aspect=fixed;" parent="R-T66y3Ku4dc0HnjRfM0-71" vertex="1">
          <mxGeometry x="666" width="14" height="14" as="geometry" />
        </mxCell>
        <mxCell id="R-T66y3Ku4dc0HnjRfM0-74" value="" style="whiteSpace=wrap;html=1;aspect=fixed;" parent="R-T66y3Ku4dc0HnjRfM0-71" vertex="1">
          <mxGeometry x="652" width="14" height="14" as="geometry" />
        </mxCell>
        <mxCell id="R-T66y3Ku4dc0HnjRfM0-75" value="" style="whiteSpace=wrap;html=1;aspect=fixed;" parent="R-T66y3Ku4dc0HnjRfM0-71" vertex="1">
          <mxGeometry x="638" width="14" height="14" as="geometry" />
        </mxCell>
        <mxCell id="R-T66y3Ku4dc0HnjRfM0-78" value="Création Equipement" style="strokeWidth=1;shadow=0;dashed=0;align=center;html=1;shape=mxgraph.mockup.buttons.button;strokeColor=#666666;fontColor=#ffffff;mainText=;buttonStyle=round;fontSize=17;fontStyle=1;fillColor=#008cff;whiteSpace=wrap;" parent="1" vertex="1">
          <mxGeometry x="170" y="910" width="189" height="95" as="geometry" />
        </mxCell>
        <mxCell id="R-T66y3Ku4dc0HnjRfM0-80" value="Création Personel" style="strokeWidth=1;shadow=0;dashed=0;align=center;html=1;shape=mxgraph.mockup.buttons.button;strokeColor=#666666;fontColor=#ffffff;mainText=;buttonStyle=round;fontSize=17;fontStyle=1;fillColor=#008cff;whiteSpace=wrap;" parent="1" vertex="1">
          <mxGeometry x="466" y="910" width="189" height="95" as="geometry" />
        </mxCell>
        <mxCell id="R-T66y3Ku4dc0HnjRfM0-81" value="Modification Personnel" style="strokeWidth=1;shadow=0;dashed=0;align=center;html=1;shape=mxgraph.mockup.buttons.button;strokeColor=#666666;fontColor=#ffffff;mainText=;buttonStyle=round;fontSize=17;fontStyle=1;fillColor=#008cff;whiteSpace=wrap;" parent="1" vertex="1">
          <mxGeometry x="466" y="1060" width="189" height="95" as="geometry" />
        </mxCell>
        <mxCell id="R-T66y3Ku4dc0HnjRfM0-82" value="Modification Equipement" style="strokeWidth=1;shadow=0;dashed=0;align=center;html=1;shape=mxgraph.mockup.buttons.button;strokeColor=#666666;fontColor=#ffffff;mainText=;buttonStyle=round;fontSize=17;fontStyle=1;fillColor=#008cff;whiteSpace=wrap;" parent="1" vertex="1">
          <mxGeometry x="170" y="1060" width="189" height="95" as="geometry" />
        </mxCell>
        <mxCell id="sck4vuj4WWujbihpHHY0-10" value="Code parc" style="strokeWidth=1;shadow=0;dashed=0;align=center;html=1;shape=mxgraph.mockup.text.textBox;fontColor=#666666;align=left;fontSize=17;spacingLeft=4;spacingTop=-3;whiteSpace=wrap;strokeColor=#666666;mainText=" vertex="1" parent="1">
          <mxGeometry x="540" y="1340" width="178" height="20" as="geometry" />
        </mxCell>
        <mxCell id="sck4vuj4WWujbihpHHY0-11" value="Numéro de série" style="strokeWidth=1;shadow=0;dashed=0;align=center;html=1;shape=mxgraph.mockup.text.textBox;fontColor=#666666;align=left;fontSize=17;spacingLeft=4;spacingTop=-3;whiteSpace=wrap;strokeColor=#666666;mainText=" vertex="1" parent="1">
          <mxGeometry x="114" y="1400" width="178" height="20" as="geometry" />
        </mxCell>
        <mxCell id="sck4vuj4WWujbihpHHY0-12" value="Marque" style="strokeWidth=1;shadow=0;dashed=0;align=center;html=1;shape=mxgraph.mockup.text.textBox;fontColor=#666666;align=left;fontSize=17;spacingLeft=4;spacingTop=-3;whiteSpace=wrap;strokeColor=#666666;mainText=" vertex="1" parent="1">
          <mxGeometry x="327" y="1400" width="178" height="20" as="geometry" />
        </mxCell>
        <mxCell id="sck4vuj4WWujbihpHHY0-13" value="Créer" style="strokeWidth=1;shadow=0;dashed=0;align=center;html=1;shape=mxgraph.mockup.buttons.button;strokeColor=#666666;fontColor=#ffffff;mainText=;buttonStyle=round;fontSize=17;fontStyle=1;fillColor=#008cff;whiteSpace=wrap;" vertex="1" parent="1">
          <mxGeometry x="621" y="1540" width="92" height="30" as="geometry" />
        </mxCell>
        <mxCell id="sck4vuj4WWujbihpHHY0-14" value="Commentaire" style="strokeWidth=1;shadow=0;dashed=0;align=center;html=1;shape=mxgraph.mockup.text.textBox;fontColor=#666666;align=left;fontSize=17;spacingLeft=4;spacingTop=-3;whiteSpace=wrap;strokeColor=#666666;mainText=" vertex="1" parent="1">
          <mxGeometry x="112" y="1470" width="252" height="80" as="geometry" />
        </mxCell>
        <mxCell id="sck4vuj4WWujbihpHHY0-15" value="Type" style="strokeWidth=1;shadow=0;dashed=0;align=center;html=1;shape=mxgraph.mockup.forms.comboBox;strokeColor=#999999;fillColor=#ddeeff;align=left;fillColor2=#aaddff;mainText=;fontColor=#666666;fontSize=17;spacingLeft=3;" vertex="1" parent="1">
          <mxGeometry x="114" y="1340" width="176" height="20" as="geometry" />
        </mxCell>
        <mxCell id="sck4vuj4WWujbihpHHY0-17" value="" style="triangle;whiteSpace=wrap;html=1;rotation=-180;" vertex="1" parent="1">
          <mxGeometry x="90" y="870" width="17" height="20" as="geometry" />
        </mxCell>
        <mxCell id="sck4vuj4WWujbihpHHY0-18" value="" style="triangle;whiteSpace=wrap;html=1;rotation=-180;" vertex="1" parent="1">
          <mxGeometry x="90" y="472.5" width="17" height="20" as="geometry" />
        </mxCell>
        <mxCell id="sck4vuj4WWujbihpHHY0-20" value="" style="group" vertex="1" connectable="0" parent="1">
          <mxGeometry x="74" y="1640" width="680" height="380" as="geometry" />
        </mxCell>
        <mxCell id="sck4vuj4WWujbihpHHY0-21" value="" style="rounded=1;whiteSpace=wrap;html=1;arcSize=1;" vertex="1" parent="sck4vuj4WWujbihpHHY0-20">
          <mxGeometry width="680" height="380" as="geometry" />
        </mxCell>
        <mxCell id="sck4vuj4WWujbihpHHY0-22" value="" style="group;rounded=1;arcSize=44;" vertex="1" connectable="0" parent="sck4vuj4WWujbihpHHY0-20">
          <mxGeometry width="680" height="14" as="geometry" />
        </mxCell>
        <mxCell id="sck4vuj4WWujbihpHHY0-23" value="" style="endArrow=none;html=1;rounded=0;entryX=0;entryY=1;entryDx=0;entryDy=0;exitX=0;exitY=1;exitDx=0;exitDy=0;" edge="1" parent="sck4vuj4WWujbihpHHY0-22" target="sck4vuj4WWujbihpHHY0-26">
          <mxGeometry width="50" height="50" relative="1" as="geometry">
            <mxPoint y="14" as="sourcePoint" />
            <mxPoint x="456" y="160" as="targetPoint" />
          </mxGeometry>
        </mxCell>
        <mxCell id="sck4vuj4WWujbihpHHY0-24" value="" style="whiteSpace=wrap;html=1;aspect=fixed;" vertex="1" parent="sck4vuj4WWujbihpHHY0-22">
          <mxGeometry x="666" width="14" height="14" as="geometry" />
        </mxCell>
        <mxCell id="sck4vuj4WWujbihpHHY0-25" value="" style="whiteSpace=wrap;html=1;aspect=fixed;" vertex="1" parent="sck4vuj4WWujbihpHHY0-22">
          <mxGeometry x="652" width="14" height="14" as="geometry" />
        </mxCell>
        <mxCell id="sck4vuj4WWujbihpHHY0-26" value="" style="whiteSpace=wrap;html=1;aspect=fixed;" vertex="1" parent="sck4vuj4WWujbihpHHY0-22">
          <mxGeometry x="638" width="14" height="14" as="geometry" />
        </mxCell>
        <mxCell id="sck4vuj4WWujbihpHHY0-27" value="" style="triangle;whiteSpace=wrap;html=1;rotation=-180;" vertex="1" parent="sck4vuj4WWujbihpHHY0-20">
          <mxGeometry x="14" y="30" width="17" height="20" as="geometry" />
        </mxCell>
        <mxCell id="sck4vuj4WWujbihpHHY0-28" value="Nom" style="strokeWidth=1;shadow=0;dashed=0;align=center;html=1;shape=mxgraph.mockup.text.textBox;fontColor=#666666;align=left;fontSize=17;spacingLeft=4;spacingTop=-3;whiteSpace=wrap;strokeColor=#666666;mainText=" vertex="1" parent="sck4vuj4WWujbihpHHY0-20">
          <mxGeometry x="251" y="94" width="178" height="20" as="geometry" />
        </mxCell>
        <mxCell id="sck4vuj4WWujbihpHHY0-38" value="IDRH" style="strokeWidth=1;shadow=0;dashed=0;align=center;html=1;shape=mxgraph.mockup.text.textBox;fontColor=#666666;align=left;fontSize=17;spacingLeft=4;spacingTop=-3;whiteSpace=wrap;strokeColor=#666666;mainText=" vertex="1" parent="sck4vuj4WWujbihpHHY0-20">
          <mxGeometry x="46" y="94" width="178" height="20" as="geometry" />
        </mxCell>
        <mxCell id="sck4vuj4WWujbihpHHY0-39" value="Prénom" style="strokeWidth=1;shadow=0;dashed=0;align=center;html=1;shape=mxgraph.mockup.text.textBox;fontColor=#666666;align=left;fontSize=17;spacingLeft=4;spacingTop=-3;whiteSpace=wrap;strokeColor=#666666;mainText=" vertex="1" parent="sck4vuj4WWujbihpHHY0-20">
          <mxGeometry x="456" y="94" width="178" height="20" as="geometry" />
        </mxCell>
        <mxCell id="sck4vuj4WWujbihpHHY0-40" value="Email" style="strokeWidth=1;shadow=0;dashed=0;align=center;html=1;shape=mxgraph.mockup.text.textBox;fontColor=#666666;align=left;fontSize=17;spacingLeft=4;spacingTop=-3;whiteSpace=wrap;strokeColor=#666666;mainText=" vertex="1" parent="sck4vuj4WWujbihpHHY0-20">
          <mxGeometry x="46" y="150" width="178" height="20" as="geometry" />
        </mxCell>
        <mxCell id="sck4vuj4WWujbihpHHY0-41" value="Equipe" style="strokeWidth=1;shadow=0;dashed=0;align=center;html=1;shape=mxgraph.mockup.forms.comboBox;strokeColor=#999999;fillColor=#ddeeff;align=left;fillColor2=#aaddff;mainText=;fontColor=#666666;fontSize=17;spacingLeft=3;" vertex="1" parent="sck4vuj4WWujbihpHHY0-20">
          <mxGeometry x="251" y="150" width="176" height="20" as="geometry" />
        </mxCell>
        <mxCell id="sck4vuj4WWujbihpHHY0-43" value="" style="html=1;shadow=0;dashed=0;shape=mxgraph.bootstrap.checkbox2;labelPosition=right;verticalLabelPosition=middle;align=left;verticalAlign=middle;gradientColor=#DEDEDE;fillColor=#EDEDED;checked=0;spacing=5;checkedFill=#0085FC;checkedStroke=#ffffff;sketch=0;" vertex="1" parent="sck4vuj4WWujbihpHHY0-20">
          <mxGeometry x="612" y="150" width="22" height="20" as="geometry" />
        </mxCell>
        <mxCell id="sck4vuj4WWujbihpHHY0-44" value="&lt;font style=&quot;font-size: 15px;&quot;&gt;Hébérgé&lt;/font&gt;" style="text;html=1;align=center;verticalAlign=middle;whiteSpace=wrap;rounded=0;" vertex="1" parent="sck4vuj4WWujbihpHHY0-20">
          <mxGeometry x="442" y="145" width="170" height="30" as="geometry" />
        </mxCell>
        <mxCell id="sck4vuj4WWujbihpHHY0-45" value="Commentaire" style="strokeWidth=1;shadow=0;dashed=0;align=center;html=1;shape=mxgraph.mockup.text.textBox;fontColor=#666666;align=left;fontSize=17;spacingLeft=4;spacingTop=-3;whiteSpace=wrap;strokeColor=#666666;mainText=" vertex="1" parent="sck4vuj4WWujbihpHHY0-20">
          <mxGeometry x="46" y="220" width="252" height="80" as="geometry" />
        </mxCell>
        <mxCell id="sck4vuj4WWujbihpHHY0-46" value="Créer" style="strokeWidth=1;shadow=0;dashed=0;align=center;html=1;shape=mxgraph.mockup.buttons.button;strokeColor=#666666;fontColor=#ffffff;mainText=;buttonStyle=round;fontSize=17;fontStyle=1;fillColor=#008cff;whiteSpace=wrap;" vertex="1" parent="sck4vuj4WWujbihpHHY0-20">
          <mxGeometry x="542" y="300" width="92" height="30" as="geometry" />
        </mxCell>
        <mxCell id="sck4vuj4WWujbihpHHY0-64" value="" style="group" vertex="1" connectable="0" parent="1">
          <mxGeometry x="74" y="2040" width="680" height="380" as="geometry" />
        </mxCell>
        <mxCell id="sck4vuj4WWujbihpHHY0-65" value="" style="rounded=1;whiteSpace=wrap;html=1;arcSize=1;" vertex="1" parent="sck4vuj4WWujbihpHHY0-64">
          <mxGeometry width="680" height="380" as="geometry" />
        </mxCell>
        <mxCell id="sck4vuj4WWujbihpHHY0-66" value="" style="group;rounded=1;arcSize=44;" vertex="1" connectable="0" parent="sck4vuj4WWujbihpHHY0-64">
          <mxGeometry width="680" height="14" as="geometry" />
        </mxCell>
        <mxCell id="sck4vuj4WWujbihpHHY0-67" value="" style="endArrow=none;html=1;rounded=0;entryX=0;entryY=1;entryDx=0;entryDy=0;exitX=0;exitY=1;exitDx=0;exitDy=0;" edge="1" parent="sck4vuj4WWujbihpHHY0-66" target="sck4vuj4WWujbihpHHY0-70">
          <mxGeometry width="50" height="50" relative="1" as="geometry">
            <mxPoint y="14" as="sourcePoint" />
            <mxPoint x="456" y="160" as="targetPoint" />
          </mxGeometry>
        </mxCell>
        <mxCell id="sck4vuj4WWujbihpHHY0-68" value="" style="whiteSpace=wrap;html=1;aspect=fixed;" vertex="1" parent="sck4vuj4WWujbihpHHY0-66">
          <mxGeometry x="666" width="14" height="14" as="geometry" />
        </mxCell>
        <mxCell id="sck4vuj4WWujbihpHHY0-69" value="" style="whiteSpace=wrap;html=1;aspect=fixed;" vertex="1" parent="sck4vuj4WWujbihpHHY0-66">
          <mxGeometry x="652" width="14" height="14" as="geometry" />
        </mxCell>
        <mxCell id="sck4vuj4WWujbihpHHY0-70" value="" style="whiteSpace=wrap;html=1;aspect=fixed;" vertex="1" parent="sck4vuj4WWujbihpHHY0-66">
          <mxGeometry x="638" width="14" height="14" as="geometry" />
        </mxCell>
        <mxCell id="sck4vuj4WWujbihpHHY0-71" value="" style="triangle;whiteSpace=wrap;html=1;rotation=-180;" vertex="1" parent="sck4vuj4WWujbihpHHY0-64">
          <mxGeometry x="14" y="30" width="17" height="20" as="geometry" />
        </mxCell>
        <mxCell id="sck4vuj4WWujbihpHHY0-81" value="" style="verticalLabelPosition=bottom;shadow=0;dashed=0;align=center;html=1;verticalAlign=top;strokeWidth=1;shape=mxgraph.mockup.forms.splitter;strokeColor=#999999;direction=north;" vertex="1" parent="sck4vuj4WWujbihpHHY0-64">
          <mxGeometry x="337" y="10" width="10" height="370" as="geometry" />
        </mxCell>
        <mxCell id="sck4vuj4WWujbihpHHY0-82" value="Search" style="strokeWidth=1;shadow=0;dashed=0;align=center;html=1;shape=mxgraph.mockup.forms.searchBox;strokeColor=#999999;mainText=;strokeColor2=#008cff;fontColor=#666666;fontSize=17;align=left;spacingLeft=3;whiteSpace=wrap;" vertex="1" parent="sck4vuj4WWujbihpHHY0-64">
          <mxGeometry x="86" y="30" width="184" height="20" as="geometry" />
        </mxCell>
        <mxCell id="sck4vuj4WWujbihpHHY0-83" value="" style="verticalLabelPosition=bottom;shadow=0;dashed=0;align=center;html=1;verticalAlign=top;strokeWidth=1;shape=mxgraph.mockup.navigation.scrollBar;strokeColor=#999999;barPos=97.833;fillColor2=#99ddff;strokeColor2=none;direction=north;" vertex="1" parent="sck4vuj4WWujbihpHHY0-64">
          <mxGeometry x="280" y="60" width="20" height="300" as="geometry" />
        </mxCell>
        <mxCell id="sck4vuj4WWujbihpHHY0-101" value="Equipement" style="strokeWidth=1;shadow=0;dashed=0;align=center;html=1;shape=mxgraph.mockup.text.textBox;fontColor=#666666;align=left;fontSize=17;spacingLeft=4;spacingTop=-3;whiteSpace=wrap;strokeColor=#666666;mainText=" vertex="1" parent="sck4vuj4WWujbihpHHY0-64">
          <mxGeometry x="76" y="70" width="178" height="20" as="geometry" />
        </mxCell>
        <mxCell id="sck4vuj4WWujbihpHHY0-102" value="Equipement" style="strokeWidth=1;shadow=0;dashed=0;align=center;html=1;shape=mxgraph.mockup.text.textBox;fontColor=#666666;align=left;fontSize=17;spacingLeft=4;spacingTop=-3;whiteSpace=wrap;strokeColor=#666666;mainText=" vertex="1" parent="sck4vuj4WWujbihpHHY0-64">
          <mxGeometry x="76" y="100" width="178" height="20" as="geometry" />
        </mxCell>
        <mxCell id="sck4vuj4WWujbihpHHY0-103" value="Equipement" style="strokeWidth=1;shadow=0;dashed=0;align=center;html=1;shape=mxgraph.mockup.text.textBox;fontColor=#666666;align=left;fontSize=17;spacingLeft=4;spacingTop=-3;whiteSpace=wrap;strokeColor=#666666;mainText=" vertex="1" parent="sck4vuj4WWujbihpHHY0-64">
          <mxGeometry x="76" y="130" width="178" height="20" as="geometry" />
        </mxCell>
        <mxCell id="sck4vuj4WWujbihpHHY0-104" value="Equipement" style="strokeWidth=1;shadow=0;dashed=0;align=center;html=1;shape=mxgraph.mockup.text.textBox;fontColor=#666666;align=left;fontSize=17;spacingLeft=4;spacingTop=-3;whiteSpace=wrap;strokeColor=#666666;mainText=" vertex="1" parent="sck4vuj4WWujbihpHHY0-64">
          <mxGeometry x="76" y="160" width="178" height="20" as="geometry" />
        </mxCell>
        <mxCell id="sck4vuj4WWujbihpHHY0-105" value="Equipement" style="strokeWidth=1;shadow=0;dashed=0;align=center;html=1;shape=mxgraph.mockup.text.textBox;fontColor=#666666;align=left;fontSize=17;spacingLeft=4;spacingTop=-3;whiteSpace=wrap;strokeColor=#666666;mainText=" vertex="1" parent="sck4vuj4WWujbihpHHY0-64">
          <mxGeometry x="76" y="190" width="178" height="20" as="geometry" />
        </mxCell>
        <mxCell id="sck4vuj4WWujbihpHHY0-106" value="Equipement" style="strokeWidth=1;shadow=0;dashed=0;align=center;html=1;shape=mxgraph.mockup.text.textBox;fontColor=#666666;align=left;fontSize=17;spacingLeft=4;spacingTop=-3;whiteSpace=wrap;strokeColor=#666666;mainText=" vertex="1" parent="sck4vuj4WWujbihpHHY0-64">
          <mxGeometry x="76" y="220" width="178" height="20" as="geometry" />
        </mxCell>
        <mxCell id="sck4vuj4WWujbihpHHY0-107" value="Equipement" style="strokeWidth=1;shadow=0;dashed=0;align=center;html=1;shape=mxgraph.mockup.text.textBox;fontColor=#666666;align=left;fontSize=17;spacingLeft=4;spacingTop=-3;whiteSpace=wrap;strokeColor=#666666;mainText=" vertex="1" parent="sck4vuj4WWujbihpHHY0-64">
          <mxGeometry x="76" y="250" width="178" height="20" as="geometry" />
        </mxCell>
        <mxCell id="sck4vuj4WWujbihpHHY0-108" value="Equipement" style="strokeWidth=1;shadow=0;dashed=0;align=center;html=1;shape=mxgraph.mockup.text.textBox;fontColor=#666666;align=left;fontSize=17;spacingLeft=4;spacingTop=-3;whiteSpace=wrap;strokeColor=#666666;mainText=" vertex="1" parent="sck4vuj4WWujbihpHHY0-64">
          <mxGeometry x="76" y="280" width="178" height="20" as="geometry" />
        </mxCell>
        <mxCell id="sck4vuj4WWujbihpHHY0-109" value="Equipement" style="strokeWidth=1;shadow=0;dashed=0;align=center;html=1;shape=mxgraph.mockup.text.textBox;fontColor=#666666;align=left;fontSize=17;spacingLeft=4;spacingTop=-3;whiteSpace=wrap;strokeColor=#666666;mainText=" vertex="1" parent="sck4vuj4WWujbihpHHY0-64">
          <mxGeometry x="76" y="310" width="178" height="20" as="geometry" />
        </mxCell>
        <mxCell id="sck4vuj4WWujbihpHHY0-110" value="Equipement" style="strokeWidth=1;shadow=0;dashed=0;align=center;html=1;shape=mxgraph.mockup.text.textBox;fontColor=#666666;align=left;fontSize=17;spacingLeft=4;spacingTop=-3;whiteSpace=wrap;strokeColor=#666666;mainText=" vertex="1" parent="sck4vuj4WWujbihpHHY0-64">
          <mxGeometry x="76" y="340" width="178" height="20" as="geometry" />
        </mxCell>
        <mxCell id="sck4vuj4WWujbihpHHY0-111" value="Type" style="strokeWidth=1;shadow=0;dashed=0;align=center;html=1;shape=mxgraph.mockup.forms.comboBox;strokeColor=#999999;fillColor=#ddeeff;align=left;fillColor2=#aaddff;mainText=;fontColor=#666666;fontSize=17;spacingLeft=3;" vertex="1" parent="sck4vuj4WWujbihpHHY0-64">
          <mxGeometry x="376" y="30" width="176" height="20" as="geometry" />
        </mxCell>
        <mxCell id="sck4vuj4WWujbihpHHY0-114" value="Numéro de série" style="strokeWidth=1;shadow=0;dashed=0;align=center;html=1;shape=mxgraph.mockup.text.textBox;fontColor=#666666;align=left;fontSize=17;spacingLeft=4;spacingTop=-3;whiteSpace=wrap;strokeColor=#666666;mainText=" vertex="1" parent="sck4vuj4WWujbihpHHY0-64">
          <mxGeometry x="376" y="60" width="178" height="20" as="geometry" />
        </mxCell>
        <mxCell id="sck4vuj4WWujbihpHHY0-112" value="Nom" style="strokeWidth=1;shadow=0;dashed=0;align=center;html=1;shape=mxgraph.mockup.text.textBox;fontColor=#666666;align=left;fontSize=17;spacingLeft=4;spacingTop=-3;whiteSpace=wrap;strokeColor=#666666;mainText=" vertex="1" parent="sck4vuj4WWujbihpHHY0-64">
          <mxGeometry x="376" y="90" width="178" height="20" as="geometry" />
        </mxCell>
        <mxCell id="sck4vuj4WWujbihpHHY0-115" value="Marque" style="strokeWidth=1;shadow=0;dashed=0;align=center;html=1;shape=mxgraph.mockup.text.textBox;fontColor=#666666;align=left;fontSize=17;spacingLeft=4;spacingTop=-3;whiteSpace=wrap;strokeColor=#666666;mainText=" vertex="1" parent="sck4vuj4WWujbihpHHY0-64">
          <mxGeometry x="376" y="120" width="178" height="20" as="geometry" />
        </mxCell>
        <mxCell id="sck4vuj4WWujbihpHHY0-113" value="Code parc" style="strokeWidth=1;shadow=0;dashed=0;align=center;html=1;shape=mxgraph.mockup.text.textBox;fontColor=#666666;align=left;fontSize=17;spacingLeft=4;spacingTop=-3;whiteSpace=wrap;strokeColor=#666666;mainText=" vertex="1" parent="sck4vuj4WWujbihpHHY0-64">
          <mxGeometry x="376" y="150" width="178" height="20" as="geometry" />
        </mxCell>
        <mxCell id="sck4vuj4WWujbihpHHY0-116" value="Commentaire" style="strokeWidth=1;shadow=0;dashed=0;align=center;html=1;shape=mxgraph.mockup.text.textBox;fontColor=#666666;align=left;fontSize=17;spacingLeft=4;spacingTop=-3;whiteSpace=wrap;strokeColor=#666666;mainText=" vertex="1" parent="sck4vuj4WWujbihpHHY0-64">
          <mxGeometry x="376" y="190" width="184" height="80" as="geometry" />
        </mxCell>
        <mxCell id="sck4vuj4WWujbihpHHY0-134" value="&lt;font style=&quot;font-size: 14px;&quot;&gt;Modifier&lt;/font&gt;" style="strokeWidth=1;shadow=0;dashed=0;align=center;html=1;shape=mxgraph.mockup.buttons.button;strokeColor=#666666;fontColor=#ffffff;mainText=;buttonStyle=round;fontSize=17;fontStyle=1;fillColor=#008cff;whiteSpace=wrap;" vertex="1" parent="sck4vuj4WWujbihpHHY0-64">
          <mxGeometry x="496" y="340" width="68" height="20" as="geometry" />
        </mxCell>
        <mxCell id="sck4vuj4WWujbihpHHY0-135" value="&lt;font style=&quot;font-size: 12px;&quot;&gt;Supprimer&lt;/font&gt;" style="strokeWidth=1;shadow=0;dashed=0;align=center;html=1;shape=mxgraph.mockup.buttons.button;strokeColor=#666666;fontColor=#ffffff;mainText=;buttonStyle=round;fontSize=17;fontStyle=1;fillColor=#008cff;whiteSpace=wrap;" vertex="1" parent="sck4vuj4WWujbihpHHY0-64">
          <mxGeometry x="590" y="340" width="68" height="20" as="geometry" />
        </mxCell>
        <mxCell id="sck4vuj4WWujbihpHHY0-145" value="" style="group" vertex="1" connectable="0" parent="1">
          <mxGeometry x="80" y="2440" width="680" height="380" as="geometry" />
        </mxCell>
        <mxCell id="sck4vuj4WWujbihpHHY0-146" value="" style="rounded=1;whiteSpace=wrap;html=1;arcSize=1;" vertex="1" parent="sck4vuj4WWujbihpHHY0-145">
          <mxGeometry width="680" height="380" as="geometry" />
        </mxCell>
        <mxCell id="sck4vuj4WWujbihpHHY0-147" value="" style="group;rounded=1;arcSize=44;" vertex="1" connectable="0" parent="sck4vuj4WWujbihpHHY0-145">
          <mxGeometry width="680" height="14" as="geometry" />
        </mxCell>
        <mxCell id="sck4vuj4WWujbihpHHY0-148" value="" style="endArrow=none;html=1;rounded=0;entryX=0;entryY=1;entryDx=0;entryDy=0;exitX=0;exitY=1;exitDx=0;exitDy=0;" edge="1" parent="sck4vuj4WWujbihpHHY0-147" target="sck4vuj4WWujbihpHHY0-151">
          <mxGeometry width="50" height="50" relative="1" as="geometry">
            <mxPoint y="14" as="sourcePoint" />
            <mxPoint x="456" y="160" as="targetPoint" />
          </mxGeometry>
        </mxCell>
        <mxCell id="sck4vuj4WWujbihpHHY0-149" value="" style="whiteSpace=wrap;html=1;aspect=fixed;" vertex="1" parent="sck4vuj4WWujbihpHHY0-147">
          <mxGeometry x="666" width="14" height="14" as="geometry" />
        </mxCell>
        <mxCell id="sck4vuj4WWujbihpHHY0-150" value="" style="whiteSpace=wrap;html=1;aspect=fixed;" vertex="1" parent="sck4vuj4WWujbihpHHY0-147">
          <mxGeometry x="652" width="14" height="14" as="geometry" />
        </mxCell>
        <mxCell id="sck4vuj4WWujbihpHHY0-151" value="" style="whiteSpace=wrap;html=1;aspect=fixed;" vertex="1" parent="sck4vuj4WWujbihpHHY0-147">
          <mxGeometry x="638" width="14" height="14" as="geometry" />
        </mxCell>
        <mxCell id="sck4vuj4WWujbihpHHY0-152" value="" style="triangle;whiteSpace=wrap;html=1;rotation=-180;" vertex="1" parent="sck4vuj4WWujbihpHHY0-145">
          <mxGeometry x="14" y="30" width="17" height="20" as="geometry" />
        </mxCell>
        <mxCell id="sck4vuj4WWujbihpHHY0-153" value="" style="verticalLabelPosition=bottom;shadow=0;dashed=0;align=center;html=1;verticalAlign=top;strokeWidth=1;shape=mxgraph.mockup.forms.splitter;strokeColor=#999999;direction=north;" vertex="1" parent="sck4vuj4WWujbihpHHY0-145">
          <mxGeometry x="337" y="10" width="10" height="370" as="geometry" />
        </mxCell>
        <mxCell id="sck4vuj4WWujbihpHHY0-154" value="Search" style="strokeWidth=1;shadow=0;dashed=0;align=center;html=1;shape=mxgraph.mockup.forms.searchBox;strokeColor=#999999;mainText=;strokeColor2=#008cff;fontColor=#666666;fontSize=17;align=left;spacingLeft=3;whiteSpace=wrap;" vertex="1" parent="sck4vuj4WWujbihpHHY0-145">
          <mxGeometry x="86" y="30" width="184" height="20" as="geometry" />
        </mxCell>
        <mxCell id="sck4vuj4WWujbihpHHY0-155" value="" style="verticalLabelPosition=bottom;shadow=0;dashed=0;align=center;html=1;verticalAlign=top;strokeWidth=1;shape=mxgraph.mockup.navigation.scrollBar;strokeColor=#999999;barPos=97.833;fillColor2=#99ddff;strokeColor2=none;direction=north;" vertex="1" parent="sck4vuj4WWujbihpHHY0-145">
          <mxGeometry x="280" y="60" width="20" height="300" as="geometry" />
        </mxCell>
        <mxCell id="sck4vuj4WWujbihpHHY0-156" value="Nom" style="strokeWidth=1;shadow=0;dashed=0;align=center;html=1;shape=mxgraph.mockup.text.textBox;fontColor=#666666;align=left;fontSize=17;spacingLeft=4;spacingTop=-3;whiteSpace=wrap;strokeColor=#666666;mainText=" vertex="1" parent="sck4vuj4WWujbihpHHY0-145">
          <mxGeometry x="76" y="70" width="178" height="20" as="geometry" />
        </mxCell>
        <mxCell id="sck4vuj4WWujbihpHHY0-157" value="Nom" style="strokeWidth=1;shadow=0;dashed=0;align=center;html=1;shape=mxgraph.mockup.text.textBox;fontColor=#666666;align=left;fontSize=17;spacingLeft=4;spacingTop=-3;whiteSpace=wrap;strokeColor=#666666;mainText=" vertex="1" parent="sck4vuj4WWujbihpHHY0-145">
          <mxGeometry x="76" y="100" width="178" height="20" as="geometry" />
        </mxCell>
        <mxCell id="sck4vuj4WWujbihpHHY0-158" value="Nom" style="strokeWidth=1;shadow=0;dashed=0;align=center;html=1;shape=mxgraph.mockup.text.textBox;fontColor=#666666;align=left;fontSize=17;spacingLeft=4;spacingTop=-3;whiteSpace=wrap;strokeColor=#666666;mainText=" vertex="1" parent="sck4vuj4WWujbihpHHY0-145">
          <mxGeometry x="76" y="130" width="178" height="20" as="geometry" />
        </mxCell>
        <mxCell id="sck4vuj4WWujbihpHHY0-159" value="Nom" style="strokeWidth=1;shadow=0;dashed=0;align=center;html=1;shape=mxgraph.mockup.text.textBox;fontColor=#666666;align=left;fontSize=17;spacingLeft=4;spacingTop=-3;whiteSpace=wrap;strokeColor=#666666;mainText=" vertex="1" parent="sck4vuj4WWujbihpHHY0-145">
          <mxGeometry x="76" y="160" width="178" height="20" as="geometry" />
        </mxCell>
        <mxCell id="sck4vuj4WWujbihpHHY0-160" value="Nom" style="strokeWidth=1;shadow=0;dashed=0;align=center;html=1;shape=mxgraph.mockup.text.textBox;fontColor=#666666;align=left;fontSize=17;spacingLeft=4;spacingTop=-3;whiteSpace=wrap;strokeColor=#666666;mainText=" vertex="1" parent="sck4vuj4WWujbihpHHY0-145">
          <mxGeometry x="76" y="190" width="178" height="20" as="geometry" />
        </mxCell>
        <mxCell id="sck4vuj4WWujbihpHHY0-161" value="Nom" style="strokeWidth=1;shadow=0;dashed=0;align=center;html=1;shape=mxgraph.mockup.text.textBox;fontColor=#666666;align=left;fontSize=17;spacingLeft=4;spacingTop=-3;whiteSpace=wrap;strokeColor=#666666;mainText=" vertex="1" parent="sck4vuj4WWujbihpHHY0-145">
          <mxGeometry x="76" y="220" width="178" height="20" as="geometry" />
        </mxCell>
        <mxCell id="sck4vuj4WWujbihpHHY0-162" value="Nom" style="strokeWidth=1;shadow=0;dashed=0;align=center;html=1;shape=mxgraph.mockup.text.textBox;fontColor=#666666;align=left;fontSize=17;spacingLeft=4;spacingTop=-3;whiteSpace=wrap;strokeColor=#666666;mainText=" vertex="1" parent="sck4vuj4WWujbihpHHY0-145">
          <mxGeometry x="76" y="250" width="178" height="20" as="geometry" />
        </mxCell>
        <mxCell id="sck4vuj4WWujbihpHHY0-163" value="Nom" style="strokeWidth=1;shadow=0;dashed=0;align=center;html=1;shape=mxgraph.mockup.text.textBox;fontColor=#666666;align=left;fontSize=17;spacingLeft=4;spacingTop=-3;whiteSpace=wrap;strokeColor=#666666;mainText=" vertex="1" parent="sck4vuj4WWujbihpHHY0-145">
          <mxGeometry x="76" y="280" width="178" height="20" as="geometry" />
        </mxCell>
        <mxCell id="sck4vuj4WWujbihpHHY0-164" value="Nom" style="strokeWidth=1;shadow=0;dashed=0;align=center;html=1;shape=mxgraph.mockup.text.textBox;fontColor=#666666;align=left;fontSize=17;spacingLeft=4;spacingTop=-3;whiteSpace=wrap;strokeColor=#666666;mainText=" vertex="1" parent="sck4vuj4WWujbihpHHY0-145">
          <mxGeometry x="76" y="310" width="178" height="20" as="geometry" />
        </mxCell>
        <mxCell id="sck4vuj4WWujbihpHHY0-165" value="Nom" style="strokeWidth=1;shadow=0;dashed=0;align=center;html=1;shape=mxgraph.mockup.text.textBox;fontColor=#666666;align=left;fontSize=17;spacingLeft=4;spacingTop=-3;whiteSpace=wrap;strokeColor=#666666;mainText=" vertex="1" parent="sck4vuj4WWujbihpHHY0-145">
          <mxGeometry x="76" y="340" width="178" height="20" as="geometry" />
        </mxCell>
        <mxCell id="sck4vuj4WWujbihpHHY0-172" value="&lt;font style=&quot;font-size: 14px;&quot;&gt;Modifier&lt;/font&gt;" style="strokeWidth=1;shadow=0;dashed=0;align=center;html=1;shape=mxgraph.mockup.buttons.button;strokeColor=#666666;fontColor=#ffffff;mainText=;buttonStyle=round;fontSize=17;fontStyle=1;fillColor=#008cff;whiteSpace=wrap;" vertex="1" parent="sck4vuj4WWujbihpHHY0-145">
          <mxGeometry x="496" y="340" width="68" height="20" as="geometry" />
        </mxCell>
        <mxCell id="sck4vuj4WWujbihpHHY0-173" value="&lt;font style=&quot;font-size: 12px;&quot;&gt;Supprimer&lt;/font&gt;" style="strokeWidth=1;shadow=0;dashed=0;align=center;html=1;shape=mxgraph.mockup.buttons.button;strokeColor=#666666;fontColor=#ffffff;mainText=;buttonStyle=round;fontSize=17;fontStyle=1;fillColor=#008cff;whiteSpace=wrap;" vertex="1" parent="sck4vuj4WWujbihpHHY0-145">
          <mxGeometry x="590" y="340" width="68" height="20" as="geometry" />
        </mxCell>
        <mxCell id="sck4vuj4WWujbihpHHY0-175" value="IDRH" style="strokeWidth=1;shadow=0;dashed=0;align=center;html=1;shape=mxgraph.mockup.text.textBox;fontColor=#666666;align=left;fontSize=17;spacingLeft=4;spacingTop=-3;whiteSpace=wrap;strokeColor=#666666;mainText=" vertex="1" parent="sck4vuj4WWujbihpHHY0-145">
          <mxGeometry x="370" y="30" width="178" height="20" as="geometry" />
        </mxCell>
        <mxCell id="sck4vuj4WWujbihpHHY0-174" value="Nom" style="strokeWidth=1;shadow=0;dashed=0;align=center;html=1;shape=mxgraph.mockup.text.textBox;fontColor=#666666;align=left;fontSize=17;spacingLeft=4;spacingTop=-3;whiteSpace=wrap;strokeColor=#666666;mainText=" vertex="1" parent="sck4vuj4WWujbihpHHY0-145">
          <mxGeometry x="370" y="60" width="178" height="20" as="geometry" />
        </mxCell>
        <mxCell id="sck4vuj4WWujbihpHHY0-176" value="Prénom" style="strokeWidth=1;shadow=0;dashed=0;align=center;html=1;shape=mxgraph.mockup.text.textBox;fontColor=#666666;align=left;fontSize=17;spacingLeft=4;spacingTop=-3;whiteSpace=wrap;strokeColor=#666666;mainText=" vertex="1" parent="sck4vuj4WWujbihpHHY0-145">
          <mxGeometry x="370" y="90" width="178" height="20" as="geometry" />
        </mxCell>
        <mxCell id="sck4vuj4WWujbihpHHY0-177" value="Email" style="strokeWidth=1;shadow=0;dashed=0;align=center;html=1;shape=mxgraph.mockup.text.textBox;fontColor=#666666;align=left;fontSize=17;spacingLeft=4;spacingTop=-3;whiteSpace=wrap;strokeColor=#666666;mainText=" vertex="1" parent="sck4vuj4WWujbihpHHY0-145">
          <mxGeometry x="370" y="120" width="178" height="20" as="geometry" />
        </mxCell>
        <mxCell id="sck4vuj4WWujbihpHHY0-178" value="Equipe" style="strokeWidth=1;shadow=0;dashed=0;align=center;html=1;shape=mxgraph.mockup.forms.comboBox;strokeColor=#999999;fillColor=#ddeeff;align=left;fillColor2=#aaddff;mainText=;fontColor=#666666;fontSize=17;spacingLeft=3;" vertex="1" parent="sck4vuj4WWujbihpHHY0-145">
          <mxGeometry x="370" y="150" width="176" height="20" as="geometry" />
        </mxCell>
        <mxCell id="sck4vuj4WWujbihpHHY0-179" value="&lt;font style=&quot;font-size: 15px;&quot;&gt;Hébérgé&lt;/font&gt;" style="text;html=1;align=center;verticalAlign=middle;whiteSpace=wrap;rounded=0;" vertex="1" parent="sck4vuj4WWujbihpHHY0-145">
          <mxGeometry x="370" y="180" width="94" height="30" as="geometry" />
        </mxCell>
        <mxCell id="sck4vuj4WWujbihpHHY0-181" value="" style="html=1;shadow=0;dashed=0;shape=mxgraph.bootstrap.checkbox2;labelPosition=right;verticalLabelPosition=middle;align=left;verticalAlign=middle;gradientColor=#DEDEDE;fillColor=#EDEDED;checked=0;spacing=5;checkedFill=#0085FC;checkedStroke=#ffffff;sketch=0;" vertex="1" parent="sck4vuj4WWujbihpHHY0-145">
          <mxGeometry x="500" y="185" width="22" height="20" as="geometry" />
        </mxCell>
        <mxCell id="sck4vuj4WWujbihpHHY0-180" value="Commentaire" style="strokeWidth=1;shadow=0;dashed=0;align=center;html=1;shape=mxgraph.mockup.text.textBox;fontColor=#666666;align=left;fontSize=17;spacingLeft=4;spacingTop=-3;whiteSpace=wrap;strokeColor=#666666;mainText=" vertex="1" parent="sck4vuj4WWujbihpHHY0-145">
          <mxGeometry x="370" y="230" width="180" height="80" as="geometry" />
        </mxCell>
      </root>
    </mxGraphModel>
  </diagram>
</mxfile>
